<?xml version="1.0" encoding="UTF-8"?><svg id="Layer_2" xmlns="http://www.w3.org/2000/svg" viewBox="0 0 108.59 108.59"><defs><style>.cls-1{fill:#f2f2f2;}.cls-1,.cls-2{stroke-width:0px;}.cls-2{fill:#333;}</style></defs><g id="Objects"><path class="cls-1" d="M19.71,55.66c-1.22-1.22-1.47-3.17-.5-4.69L50.82,1.73c1.12-1.75,3.45-2.25,5.19-1.13,1.74,1.12,2.25,3.44,1.13,5.19l-31.61,49.25c-1.12,1.75-3.45,2.25-5.19,1.13-.23-.15-.44-.32-.63-.51Z"/><path class="cls-1" d="M52.93,88.88c-.19-.19-.36-.4-.51-.63-1.12-1.75-.61-4.07,1.13-5.19l49.25-31.61c1.75-1.12,4.06-.62,5.19,1.13,1.12,1.75.61,4.07-1.13,5.19l-49.25,31.61c-1.51.97-3.46.72-4.69-.5Z"/><path class="cls-1" d="M28.23,64.17c-1.33-1.33-1.48-3.47-.29-4.98L63.53,13.94c1.28-1.63,3.65-1.91,5.28-.63,1.61,1.27,1.91,3.64.63,5.28l-35.59,45.26c-1.28,1.63-3.65,1.91-5.28.63-.12-.09-.23-.19-.34-.3Z"/><path class="cls-1" d="M44.42,80.37c-.11-.11-.21-.22-.3-.34-1.28-1.63-1-3.99.63-5.28l45.26-35.59c1.63-1.28,4.03-.97,5.28.63,1.28,1.63,1,3.99-.63,5.28l-45.26,35.59c-1.51,1.19-3.65,1.03-4.98-.29Z"/><path class="cls-1" d="M36.32,72.27c-1.47-1.47-1.47-3.85,0-5.31l40.34-40.34c1.47-1.47,3.85-1.47,5.31,0,1.47,1.47,1.47,3.85,0,5.31l-40.34,40.34c-1.47,1.47-3.85,1.47-5.31,0Z"/><path class="cls-1" d="M10.21,65.17c-4.25,4.25-10.21,13.45-10.21,19.94,0,12.97,10.52,23.49,23.49,23.49,6.49,0,15.69-5.96,19.94-10.21L10.21,65.17Z"/><path class="cls-2" d="M46.33,95.48L13.11,62.27c-1.47-1.47-1.47-3.85,0-5.31s3.85-1.47,5.31,0l33.22,33.22c1.47,1.47,1.47,3.85,0,5.31s-3.85,1.47-5.31,0Z"/></g></svg>