<?xml version="1.0" encoding="UTF-8"?><svg id="Layer_2" xmlns="http://www.w3.org/2000/svg" viewBox="0 0 108.59 108.59"><defs><style>.cls-1{fill:#d64e5b;}.cls-1,.cls-2{stroke-width:0px;}.cls-2{fill:#333;}</style></defs><g id="Objects"><circle class="cls-1" cx="54.3" cy="54.3" r="54.3"/><path class="cls-2" d="M108.41,58.55c.28-3.64.2-7.3-.24-10.92-10.61-.35-20.66-4.08-28.86-10.65l17.04-17.04c-1.14-1.39-2.36-2.74-3.66-4.04-1.3-1.3-2.65-2.52-4.04-3.66l-17.04,17.04c-6.56-8.2-10.3-18.25-10.64-28.86-3.63-.45-7.29-.53-10.92-.24.31,13.62,5.17,26.51,13.81,36.86l-8.36,8.36L21.28,11.2c-1.87,1.43-3.67,2.99-5.38,4.7-.89.89-1.74,1.82-2.56,2.76.02.02.03.04.04.05l34.39,34.39-10.83,10.83C26.62,55.33,13.76,50.46.17,50.14c-.28,3.64-.19,7.3.26,10.92,10.57.37,20.58,4.1,28.75,10.64l-16.94,16.94c1.14,1.39,2.36,2.74,3.66,4.04,1.3,1.3,2.65,2.52,4.04,3.66l16.94-16.94c6.54,8.17,10.27,18.18,10.64,28.75,3.63.45,7.29.54,10.93.26-.33-13.59-5.19-26.45-13.8-36.78l10.83-10.83,34.39,34.39s.04.03.05.04c.94-.82,1.87-1.66,2.76-2.56,1.71-1.71,3.27-3.51,4.7-5.38l-34.2-34.2,8.36-8.36c10.35,8.64,23.25,13.5,36.86,13.81Z"/></g></svg>