<?xml version="1.0" encoding="UTF-8"?><svg id="Layer_2" xmlns="http://www.w3.org/2000/svg" viewBox="0 0 134.74 139.48"><defs><style>.cls-1{fill:#4e4e4e;}.cls-1,.cls-2{stroke-width:0px;}.cls-2{fill:#333;}</style></defs><g id="Layer_1-2"><path class="cls-1" d="M27.31,133.78c-3.33,0-6.66-.69-9.81-2.05-2.35-1.02-3.43-3.76-2.41-6.11,1.02-2.35,3.76-3.43,6.11-2.41,3.76,1.63,7.94,1.71,11.75.2,3.82-1.5,6.82-4.4,8.45-8.17,1.63-3.76,1.71-7.93.2-11.75-1.5-3.82-4.4-6.82-8.17-8.45-2.35-1.02-3.43-3.76-2.41-6.11,1.02-2.35,3.76-3.43,6.11-2.41,6.04,2.62,10.7,7.44,13.11,13.57,2.42,6.12,2.3,12.82-.32,18.86-2.62,6.04-7.44,10.7-13.57,13.11-2.93,1.16-5.99,1.73-9.05,1.73Z"/><path class="cls-1" d="M16.15,139.48c-.62,0-1.25-.12-1.85-.39-2.35-1.02-3.43-3.76-2.41-6.11L68.43,2.8c1.02-2.35,3.76-3.43,6.11-2.41,2.35,1.02,3.43,3.76,2.41,6.11L20.41,136.68c-.76,1.75-2.47,2.8-4.27,2.8Z"/><path class="cls-1" d="M55.34,104.14c-.62,0-1.25-.12-1.85-.39l-40.12-17.43c-2.35-1.02-3.43-3.76-2.41-6.11,1.02-2.35,3.76-3.43,6.11-2.41l40.12,17.43c2.35,1.02,3.43,3.76,2.41,6.11-.76,1.75-2.47,2.8-4.27,2.8Z"/><path class="cls-2" d="M120.72,100.04c2.6-2.08,4.78-4.7,6.38-7.73,1.2-2.27.33-5.08-1.93-6.28-2.27-1.2-5.08-.33-6.28,1.93-1.92,3.62-5.13,6.29-9.05,7.49-3.92,1.21-8.07.81-11.7-1.1-3.62-1.92-6.29-5.13-7.49-9.05-1.21-3.92-.82-8.08,1.1-11.7,1.2-2.27.33-5.08-1.93-6.28-2.27-1.2-5.08-.33-6.28,1.93-3.08,5.82-3.71,12.49-1.77,18.78,1.94,6.29,6.21,11.45,12.03,14.53,5.82,3.08,12.49,3.71,18.78,1.77,3.01-.93,5.76-2.39,8.15-4.3Z"/><path class="cls-2" d="M133,97.51c.48-.39.9-.87,1.2-1.46,1.2-2.27.33-5.08-1.93-6.28L6.82,23.39c-2.27-1.2-5.08-.33-6.28,1.93-1.2,2.27-.33,5.08,1.93,6.28l125.44,66.39c1.69.89,3.68.64,5.08-.48Z"/><path class="cls-2" d="M80.32,94.38c.48-.39.9-.87,1.2-1.46l20.46-38.67c1.2-2.27.33-5.08-1.93-6.28-2.27-1.2-5.08-.33-6.28,1.93l-20.46,38.67c-1.2,2.27-.33,5.08,1.93,6.28,1.69.89,3.68.64,5.08-.48Z"/></g></svg>