<?xml version="1.0" encoding="UTF-8"?><svg id="Layer_2" xmlns="http://www.w3.org/2000/svg" viewBox="0 0 108.59 108.59"><defs><style>.cls-1{fill:#f3f3f3;}.cls-1,.cls-2{stroke-width:0px;}.cls-2{fill:#333;}</style></defs><g id="Layer_1-2"><circle class="cls-1" cx="54.3" cy="54.3" r="54.3"/><path class="cls-2" d="M75.75,48.84c-4.57-4.96-9.48-9.87-14.35-14.35-6.45,1.86-13.14,3.85-19.61,5.85-1.83,6.29-3.62,12.78-5.25,19.01,4.66,4.69,9.57,9.6,14.35,14.35,6.53-1.32,13.23-2.91,19.61-4.65,1.91-6.55,3.7-13.45,5.25-20.21Z"/><path class="cls-2" d="M.04,56c.22,7.04,1.8,14.05,4.75,20.59,3.59.65,9.02,1.32,12.16,1.31.55-4.31,1.39-9.28,2.52-14.66-3.82-4.35-7.07-8.4-9.55-11.83-2.61,1.14-7.41,3.23-9.88,4.59Z"/><path class="cls-2" d="M6.45,28.63c2.16,2.18,5.43,5.54,7.39,7.56,4.24-2.36,9.49-4.75,15.23-7.05,1.97-5.41,4.07-10.37,6.16-14.35-3.49-1.86-9.97-4.2-12.39-4.75-2.43,1.73-4.76,3.68-6.94,5.86-3.86,3.86-7,8.15-9.46,12.72Z"/><path class="cls-2" d="M57.11.08c-1.77,2.82-4.1,6.98-5.02,9.16,4.1,1.81,8.68,4.53,13.39,7.99,5.82-1.56,11.25-2.86,16.03-3.88.14-2.21.18-4.19.15-5.96C74.06,2.95,65.63.52,57.11.08Z"/><path class="cls-2" d="M99.69,24.49c-1.6.32-3.5.74-5.76,1.28-.29,5.52-.92,11.61-1.89,18.02,3.63,4.88,6.61,9.71,8.74,14.14,2.1-1.23,5.71-4.31,7.73-6.56-.5-9.41-3.44-18.71-8.82-26.88Z"/><path class="cls-2" d="M100.36,83.04c-.91-2-2-4.14-3.37-6.49-3.9,2.17-8.91,4.21-14.5,6.01-2.13,5.91-4.46,11.22-6.9,15.38,1.6,1.56,3.03,2.95,4.32,4.23,4.59-2.46,8.9-5.61,12.77-9.48,2.98-2.98,5.52-6.23,7.67-9.65Z"/><path class="cls-2" d="M46.03,89.81c-5.97.53-11.61.7-16.66.52-.52,2.92-1.27,8.47-1.54,11.37,7.2,4.02,15.11,6.28,23.12,6.78,2.39-1.85,6.23-5.99,7.66-8.38-3.76-2.8-8.06-6.3-12.58-10.29Z"/></g></svg>