<?xml version="1.0" encoding="UTF-8"?><svg id="Layer_2" xmlns="http://www.w3.org/2000/svg" viewBox="0 0 103.81 155.09"><defs><style>.cls-1{fill:#50afdd;}.cls-1,.cls-2,.cls-3,.cls-4{stroke-width:0px;}.cls-2{fill:#ccc;}.cls-3{fill:#333;}.cls-4{fill:#fff;}</style></defs><g id="Objects"><path class="cls-3" d="M64.99,112.79c0,3.34-14.55,6.04-32.5,6.04S0,116.12,0,112.79s14.55-6.04,32.5-6.04,32.5,2.7,32.5,6.04Z"/><circle class="cls-4" cx="67.01" cy="125.1" r="29.99"/><path class="cls-3" d="M32.5,117.6c-2.66,0-4.81-2.16-4.81-4.81V4.81c0-2.66,2.16-4.81,4.81-4.81s4.81,2.16,4.81,4.81v107.97c0,2.66-2.16,4.81-4.81,4.81Z"/><path class="cls-2" d="M69.17,125.07c0,1.74-1.41,3.15-3.15,3.15s-3.15-1.41-3.15-3.15,1.41-3.15,3.15-3.15,3.15,1.41,3.15,3.15Z"/><path class="cls-2" d="M75.68,118.56c0,1.74-1.41,3.15-3.15,3.15s-3.15-1.41-3.15-3.15,1.41-3.15,3.15-3.15,3.15,1.41,3.15,3.15Z"/><path class="cls-2" d="M62.65,131.59c0,1.74-1.41,3.15-3.15,3.15s-3.15-1.41-3.15-3.15,1.41-3.15,3.15-3.15,3.15,1.41,3.15,3.15Z"/><path class="cls-2" d="M72.29,135.42c0,1.74-1.41,3.15-3.15,3.15s-3.15-1.41-3.15-3.15,1.41-3.15,3.15-3.15,3.15,1.41,3.15,3.15Z"/><circle class="cls-2" cx="62.12" cy="142.44" r="3.15"/><circle class="cls-2" cx="76.15" cy="128.41" r="3.15"/><circle class="cls-2" cx="83.17" cy="121.4" r="3.15"/><path class="cls-2" d="M83.26,139.17c0,1.74-1.41,3.15-3.15,3.15s-3.15-1.41-3.15-3.15,1.41-3.15,3.15-3.15,3.15,1.41,3.15,3.15Z"/><path class="cls-2" d="M89.77,132.66c0,1.74-1.41,3.15-3.15,3.15s-3.15-1.41-3.15-3.15,1.41-3.15,3.15-3.15,3.15,1.41,3.15,3.15Z"/><path class="cls-2" d="M76.75,145.68c0,1.74-1.41,3.15-3.15,3.15s-3.15-1.41-3.15-3.15,1.41-3.15,3.15-3.15,3.15,1.41,3.15,3.15Z"/><path class="cls-1" d="M103.19,29.98L38.82.69c-.71-.32-1.51.2-1.51.97v58.59c0,.78.8,1.29,1.51.97l64.36-29.29c.83-.38.83-1.56,0-1.94Z"/></g></svg>