<?xml version="1.0" encoding="UTF-8"?><svg id="Layer_2" xmlns="http://www.w3.org/2000/svg" viewBox="0 0 123.23 129.17"><defs><style>.cls-1{fill:#d64e5b;}.cls-1,.cls-2,.cls-3{stroke-width:0px;}.cls-2{fill:#ad2334;}.cls-3{fill:#333;}</style></defs><g id="Objects"><path class="cls-1" d="M98.68,73.91l1.88-7.13-10.13,4.25s7.79-6.25,12.25-11.38c2.4-2.75,2.73-5.66,2.86-6.02-2.27,1.23-4.69,2.31-7.23,3.2-7.7,2.69-16.67,3.69-26.67,2.97-5.5-.4-11.83-1.06-17.4-3.84-1.02-.51-2.33-1.27-3.36-2.64-1.92-2.55-1.86-5.98.14-8.95,4.34-6.45,14.02-8.28,21.96-9.15,7.18-.78,14.76-.42,22.52,1.09,2.99.58,7.94,1.55,12.08,3.66,2.02-1.9,3.72-4.09,4.79-6.52,1.04-2.37,1.13-4.78.26-6.98-.89-2.23-2.74-4.04-5.21-5.08-11.74-4.95-26.31-3.99-33.94-2.97-10.57,1.4-19.53,5.23-25.22,10.78-1.98,1.93-5.14,6.17-7.07,4.19-1.93-1.98-1.89-9.42.09-11.35,7.22-7.05,18.2-11.85,30.89-13.54,8.65-1.15,25.22-2.19,39.14,3.67,4.96,2.09,8.73,5.85,10.62,10.59,1.86,4.67,1.72,9.89-.39,14.7-1.48,3.38-3.79,6.58-6.74,9.44,1.32,2.89,1.2,5.72.84,7.64-.57,3.07-2.66,5.96-5.07,8.73-.99,1.14-11.88,10.63-11.88,10.63ZM61.55,48.15c3.35,1.06,7.15,1.42,10.82,1.68,8.62.63,16.24-.19,22.64-2.43.53-.19,1.08-.39,1.63-.61-.92-.22-1.94-.44-3.05-.65-6.77-1.32-13.34-1.65-19.52-.97-6.62.72-10.4,1.85-12.52,2.98Z"/><path class="cls-3" d="M4.28,129.17c-.51,0-1.03-.09-1.54-.29-2.2-.85-3.3-3.33-2.45-5.53L46.8,2.74c.85-2.2,3.33-3.3,5.53-2.45,2.2.85,3.3,3.33,2.45,5.53L8.27,126.43c-.65,1.7-2.28,2.74-3.99,2.74Z"/><path class="cls-2" d="M61.72,48.06c2.16-1.1,5.9-2.19,12.35-2.9,6.18-.68,12.75-.35,19.52.97.73.14,1.46.28,2.19.45.31.07.6.19.92.2.36,0,.71-.08,1.05-.18,2.61-.75,5.08-2,7.19-3.7.56-.45,1.09-.96,1.57-1.5.4-.44.65-.99,1.07-1.41l-.12-.06c-.8-.39-1.58-.78-2.41-1.12-3.06-1.23-6.32-1.85-9.55-2.48-7.76-1.51-15.34-1.88-22.52-1.09-7.94.87-17.62,2.69-21.96,9.15-.02.02-.03.05-.04.07.62.23,1.23.44,1.77.64.47.17.93.35,1.4.52,1.46.54,2.93,1.09,4.39,1.63,1.07.4,2.12.65,3.18.83Z"/></g></svg>