<?xml version="1.0" encoding="UTF-8"?><svg id="Layer_2" xmlns="http://www.w3.org/2000/svg" viewBox="0 0 155.09 123.42"><defs><style>.cls-1{fill:#50afdd;}.cls-1,.cls-2{stroke-width:0px;}.cls-2{fill:#333;}</style></defs><g id="Objects"><path class="cls-1" d="M0,105.75v12.51c0,2.85,12.44,5.16,27.78,5.16s27.78-2.31,27.78-5.16v-12.51H0Z"/><ellipse class="cls-1" cx="27.78" cy="105.75" rx="27.78" ry="5.16"/><path class="cls-2" d="M153.41,1.39c-2.13-1.96-5.44-1.84-7.41.29-24.56,26.53-67.2,71.85-74.3,74.15-7.1,2.29-18.34-3.77-27.63-11.63-3.86-3.28-9.65-2.82-12.93,1.04-3.28,3.86-2.82,9.65,1.04,12.93,3.44,2.93,18.7,15.16,33.38,15.16,3.25,0,8.13-.67,11.51-3.72,3.38-3.06,69.9-73.54,76.62-80.8,1.97-2.13,1.84-5.44-.29-7.41Z"/><path class="cls-1" d="M65.64,76.07c-6.58-1.12-14.62-5.99-21.57-11.88-3.86-3.28-9.65-2.82-12.93,1.04-3.28,3.86-2.82,9.65,1.04,12.93,3.44,2.93,18.7,15.16,33.38,15.16.03,0,.06,0,.08,0v-17.25Z"/></g></svg>