<?xml version="1.0" encoding="UTF-8"?><svg id="Layer_2" xmlns="http://www.w3.org/2000/svg" viewBox="0 0 116.01 116.83"><defs><style>.cls-1{fill:#f3f3f3;}.cls-1,.cls-2,.cls-3{stroke-width:0px;}.cls-2{fill:#ccc;}.cls-3{fill:#333;}</style></defs><g id="Layer_1-2"><path class="cls-1" d="M30.27,79.12c3.92,0,3.93-6.1,0-6.1s-3.93,6.1,0,6.1h0Z"/><path class="cls-1" d="M115.86,81.67L99.61,14.06c-1.82-7.56-8.95-11.95-12.56-13.73-1.22-.6-2.67-.36-3.63.6l-12.84,23.56L32.58.92c-.96-.96-2.42-1.2-3.63-.6-3.6,1.78-10.74,6.17-12.56,13.73L.15,81.67c-.81,3.36,1.74,6.6,5.2,6.6h12.18c1.88,0,3.34,1.63,3.13,3.5l-1.49,13.23c-.21,1.87,17.49,11.82,38.84,11.82s39.05-9.96,38.84-11.82l-1.49-13.23c-.21-1.87,1.25-3.5,3.13-3.5h12.18c3.46,0,6.01-3.23,5.2-6.6Z"/><path class="cls-3" d="M85.15,107.21c-2.08,0-4.04-1.29-4.78-3.36l-4.02-11.17-4.34,10.5c-1.07,2.59-4.05,3.82-6.64,2.76-2.59-1.07-3.83-4.04-2.76-6.64l9.36-22.66c.79-1.9,2.64-3.14,4.7-3.14.04,0,.08,0,.12,0,2.1.05,3.95,1.38,4.66,3.36l8.47,23.55c.95,2.64-.42,5.55-3.06,6.5-.57.2-1.15.3-1.72.3Z"/><path class="cls-2" d="M70.58,28.55c1.36,0,2.69-.68,3.46-1.92,1.18-1.91.6-4.41-1.31-5.6l-.19-.12-1.95,3.58L32.58.92c-.96-.96-2.42-1.2-3.63-.59-.13.06-.27.14-.4.2-.14,1.49.53,3,1.89,3.85l38,23.56c.67.41,1.41.61,2.14.61Z"/><path class="cls-2" d="M28.24,110.69L86.99,2.87c.4-.74.55-1.55.48-2.33-.14-.07-.28-.15-.42-.21-1.22-.6-2.67-.36-3.63.59l-12.84,23.56-3.46-2.15L21.04,106.92c1.55,1.08,4.02,2.42,7.2,3.78Z"/><path class="cls-2" d="M20.63,90.92c.53-.28.95-.77,1.06-1.41l9.87-54.14c.2-1.11-.53-2.16-1.63-2.36-1.12-.22-2.16.53-2.36,1.63l-9.78,53.65c1.47.12,2.62,1.22,2.85,2.62Z"/><path class="cls-2" d="M88.33,34.37c-.2-1.1-1.26-1.84-2.36-1.63-1.1.2-1.84,1.26-1.63,2.36l9.91,54.41c.12.66.57,1.17,1.13,1.45.21-1.4,1.34-2.5,2.78-2.65l-9.83-53.94Z"/><polygon class="cls-3" points="91.33 73.5 24.61 73.5 22.75 83.66 93.18 83.66 91.33 73.5"/></g></svg>