<?xml version="1.0" encoding="UTF-8"?><svg id="Layer_2" xmlns="http://www.w3.org/2000/svg" viewBox="0 0 130.36 90"><defs><style>.cls-1{fill:#dd5863;}.cls-1,.cls-2{stroke-width:0px;}.cls-2{fill:#fff;}</style></defs><g id="Objects"><path class="cls-1" d="M47.86,7.85C2.83,28.85,0,75.39,0,75.39c0,0,37.47,27.75,82.5,6.75,45.03-21,47.86-67.54,47.86-67.54,0,0-37.47-27.75-82.5-6.75Z"/><path class="cls-2" d="M97.23,24.31l-6.26,2.92-2.38-5.09c-1.22-2.61-4.31-3.74-6.92-2.52-2.61,1.22-3.73,4.31-2.52,6.92l2.38,5.09-13.83,6.45-2.38-5.09c-1.22-2.61-4.31-3.73-6.92-2.52-2.61,1.22-3.74,4.31-2.52,6.92l2.38,5.09-13.83,6.45-2.38-5.09c-1.22-2.61-4.31-3.73-6.92-2.52-2.61,1.22-3.74,4.31-2.52,6.92l2.38,5.09-6.26,2.92c-2.61,1.22-3.73,4.31-2.52,6.92,1.22,2.61,4.31,3.74,6.92,2.52l6.26-2.92,2.38,5.09c1.22,2.61,4.31,3.73,6.92,2.52s3.74-4.31,2.52-6.92l-2.38-5.09,13.83-6.45,2.38,5.09c1.22,2.61,4.31,3.73,6.92,2.52s3.73-4.31,2.52-6.92l-2.38-5.09,13.83-6.45,2.38,5.09c1.22,2.61,4.31,3.73,6.92,2.52s3.73-4.31,2.52-6.92l-2.38-5.09,6.26-2.92c2.61-1.22,3.73-4.31,2.52-6.92-1.22-2.61-4.31-3.73-6.92-2.52Z"/><path class="cls-2" d="M20.88,85.55c3.5,1.16,7.36,2.2,11.54,2.99.3-1.14.24-2.37-.29-3.52L13.27,44.6c-.54-1.15-1.45-1.99-2.51-2.49-2.08,3.7-3.77,7.33-5.13,10.76l15.24,32.68Z"/><path class="cls-2" d="M109.48,4.44c-3.5-1.16-7.36-2.2-11.54-2.99-.3,1.14-.24,2.38.29,3.52l18.85,40.42c.54,1.15,1.45,1.99,2.51,2.49,2.08-3.7,3.77-7.33,5.13-10.76l-15.24-32.69Z"/></g></svg>