<?xml version="1.0" encoding="UTF-8"?><svg id="Layer_2" xmlns="http://www.w3.org/2000/svg" viewBox="0 0 138.92 130.87"><defs><style>.cls-1{fill:#f2f2f2;}.cls-1,.cls-2,.cls-3,.cls-4{stroke-width:0px;}.cls-2{fill:#4d4d4d;}.cls-3{fill:#dd5863;}.cls-4{fill:#333;}</style></defs><g id="Objects"><path class="cls-2" d="M17.61,130.87c-1.79,0-3.62-.25-5.46-.9-5.3-1.86-9.16-6.87-9.83-12.76-.54-4.7,1.01-13.17,7.47-15.89,2.18-.92,4.69.11,5.6,2.29.92,2.18-.11,4.69-2.29,5.6-1.43.6-2.61,4.21-2.28,7.02.31,2.66,1.94,4.89,4.16,5.67,2.91,1.02,6.37,0,10.03-1.09l.46-.14c4.28-1.27,8.85-2.54,13.97-3.89,6.52-1.72,13.16-3.36,19.58-4.95,2.78-.69,5.56-1.37,8.34-2.07,5.89-1.47,19.64-5.53,32.94-9.46,13.4-3.96,27.25-8.05,33.32-9.57,2.29-.57,4.61.82,5.19,3.11.57,2.29-.82,4.62-3.11,5.19-5.89,1.47-19.66,5.54-32.98,9.47-14,4.14-27.22,8.04-33.28,9.56-2.79.7-5.57,1.39-8.36,2.08-6.39,1.58-13,3.21-19.46,4.92-5.04,1.33-9.52,2.58-13.72,3.82l-.45.13c-2.9.86-6.27,1.86-9.83,1.86Z"/><path class="cls-2" d="M50.18,122.71c-1.89,0-3.61-1.26-4.13-3.16l-2.87-10.62c-.62-2.28.73-4.63,3.02-5.24,2.27-.62,4.63.73,5.24,3.02l2.87,10.62c.62,2.28-.73,4.63-3.02,5.24-.37.1-.75.15-1.12.15Z"/><path class="cls-2" d="M114.35,104.53c-1.89,0-3.61-1.26-4.13-3.16l-2.87-10.62c-.62-2.28.73-4.63,3.02-5.24,2.27-.62,4.63.73,5.24,3.02l2.87,10.62c.62,2.28-.73,4.63-3.02,5.24-.37.1-.75.15-1.12.15Z"/><path class="cls-1" d="M52.68,4.71c-.23.48-.42.94-.56,1.36-.74,2.17-.87,4.49-.99,6.77-.48,8.9-.99,17.81-2.29,26.63-.66,4.48-1.52,8.94-2.69,13.32-1.11,4.18-2.76,8.18-3.82,12.38-.12.48-.23,1.01,0,1.46.16.33.49.55.83.68,1.69.68,3.53-.43,4.96-1.56,5.73-4.5,10.61-10.07,14.31-16.34,2.1-3.56,3.82-7.33,5.46-11.12,4.53-10.5,8.51-21.89,6.6-33.17-.21-1.26-.52-2.56-1.33-3.56-2.11-2.6-8.54-.99-11.39-.73-1.79.16-4.25-.05-5.94.48-1.36.43-2.44,1.96-3.13,3.39Z"/><path class="cls-1" d="M118.58,41.48c.37,10.57,3.59,20.82,3.69,31.41.01,1.28-.05,2.65-.8,3.69-.55.77-1.41,1.25-2.25,1.67-8.02,4-17.17,4.55-25.09,8.73-6.38,3.37-12.08,7.92-17.96,12.07-5.41,3.81-11.58,6.47-17.87,8.53-16.73,5.48-35.24,5.15-52.38,1.8-1.06-.21-2.16-.45-3.02-1.1-4.11-3.13-3.2-12.49-1.11-16.38,2.33-4.33,6.93-6.83,11.17-9.3,15.18-8.83,28.57-20.6,38-35.51,4.46-7.06,9.54-14.89,9.97-23.47.3-6.09-1.93-18.68,4.62-22.41,5.84-3.33,16.7,1.15,22.36,3.29,4.03,1.53,8.01,3.2,12.13,4.47,3.91,1.21,8.9,1.05,12.3,3.43,5.04,3.53,5.96,9.96,6.09,15.67.1,4.48,0,8.95.16,13.41Z"/><path class="cls-3" d="M65.53,1.19c-6.55,3.73-4.32,16.31-4.62,22.41-.43,8.58-5.51,16.42-9.97,23.47-9.34,14.78-22.57,26.46-37.58,35.26,1.06,3.83,13.22,3.2,15.54,2.9,7.46-.95,14.61-3.96,20.69-8.35,7.92-5.72,14.06-13.61,18.6-22.29.62-1.19,1.21-2.39,1.77-3.6,7.11-15.39,9.91-32.17,11.3-48.93-5.42-1.78-11.75-3.15-15.74-.87Z"/><path class="cls-4" d="M83.66,71.43c-.7,0-1.38-.34-1.79-.97-.64-.99-.37-2.31.62-2.96,6.85-4.46,11.76-11.66,13.83-20.27,1.07-4.46,1.22-9.28,1.37-13.95.04-1.4.09-2.79.15-4.17.06-1.18,1.07-2.05,2.24-2.03,1.18.06,2.09,1.06,2.03,2.24-.07,1.36-.11,2.72-.15,4.09-.15,4.89-.31,9.94-1.49,14.82-2.33,9.68-7.89,17.79-15.66,22.85-.36.24-.77.35-1.17.35Z"/><path class="cls-4" d="M23.08,78.18c-1.02,0-1.92-.73-2.1-1.76-.21-1.16.57-2.27,1.73-2.48l32.25-5.79-5.18-22.02c-.25-1.07.35-2.17,1.4-2.52l23.11-7.78c1.12-.38,2.33.23,2.71,1.35.38,1.12-.23,2.33-1.35,2.71l-21.27,7.16,5.25,22.32c.13.57.03,1.17-.29,1.66-.32.49-.83.83-1.41.93l-34.47,6.19c-.13.02-.25.03-.38.03Z"/><path class="cls-4" d="M38.3,85.07c-1.18,0-2.14-.96-2.14-2.14v-19.62c0-.94.61-1.76,1.5-2.04l27.89-8.7-8.88-17.79c-.53-1.06-.1-2.34.96-2.87,1.06-.53,2.34-.1,2.87.96l10.01,20.04c.28.56.3,1.22.05,1.79-.25.58-.73,1.02-1.33,1.2l-28.79,8.98v18.05c0,1.18-.96,2.14-2.14,2.14Z"/><path class="cls-3" d="M123.56,84.95c-.02-.43-.08-.88-.12-1.37-.17-1.69-.33-3.37-.5-5.06l-.43-4.31c-.04-.37.04-1.12-.14-1.45-.39-.72-1.06-.13-1.81.24-.86.42-1.73.81-2.61,1.17-5.09,2.07-10.57,3.16-15.92,4.5-9.94,2.51-17.9,7.64-26.38,13.16-8.3,5.41-16.88,10.93-26.71,13.01-6.08,1.29-12.59,1.49-18.77,1.89-8.3.54-17.05.15-25.03-2.42-1.32-.42-2.63-.92-3.73-1.75-.53-.4-1-.88-1.37-1.42.14,2.93.97,5.67,2.85,7.1.86.66,1.96.9,3.02,1.1,17.14,3.35,35.65,3.68,52.38-1.8,6.29-2.06,12.47-4.72,17.87-8.53,5.88-4.14,11.58-8.7,17.96-12.07.96-.51,1.95-.96,2.94-1.38.03.89.18,1.86.25,2.87.15,2.05.31,4.09.46,6.14,0,.13.02.25.03.38.22,2.89,11.99-1.82,13.15-2.31,3.07-1.29,6.14-2.58,9.2-3.87.86-.36,1.74-.73,2.43-1.36.85-.77,1-1.58.97-2.48Z"/></g></svg>