<?xml version="1.0" encoding="UTF-8"?><svg id="Layer_2" xmlns="http://www.w3.org/2000/svg" viewBox="0 0 108.59 108.59"><defs><style>.cls-1{fill:#fff;}.cls-1,.cls-2{stroke-width:0px;}.cls-2{fill:#f0b754;}</style></defs><g id="Objects"><circle class="cls-2" cx="54.3" cy="54.3" r="54.3"/><path class="cls-1" d="M101.65,29.88c.27-.27.5-.56.7-.86-1.56-2.96-3.38-5.75-5.44-8.35-1.08.18-2.13.67-2.96,1.51-7.42,7.42-14.22,7.54-22.83,7.71-9.28.17-19.8.37-30.33,10.9-10.52,10.52-10.72,21.04-10.89,30.33-.16,8.61-.29,15.41-7.7,22.83-.83.83-1.66,1.56-2.48,2.22,2.89,2.39,6.04,4.48,9.38,6.23.27-.25.53-.49.8-.75,10.52-10.52,10.72-21.04,10.89-30.33.16-8.61.29-15.41,7.7-22.83,7.42-7.41,14.22-7.54,22.83-7.71,9.28-.17,19.8-.37,30.33-10.9Z"/></g></svg>