<?xml version="1.0" encoding="UTF-8"?><svg id="Layer_2" xmlns="http://www.w3.org/2000/svg" viewBox="0 0 155.09 57.51"><defs><style>.cls-1{fill:#d65844;}.cls-1,.cls-2{stroke-width:0px;}.cls-2{fill:#333;}</style></defs><g id="Layer_1-2"><path class="cls-2" d="M53.84,33.37h47.83c2.25,0,4.08-2.07,4.08-4.62s-1.83-4.62-4.08-4.62h-47.83c-2.25,0-4.08,2.07-4.08,4.62s1.83,4.62,4.08,4.62Z"/><path class="cls-2" d="M4.62,33.37h8.27c2.55,0,4.62-2.07,4.62-4.62s-2.07-4.62-4.62-4.62H4.62c-2.55,0-4.62,2.07-4.62,4.62s2.07,4.62,4.62,4.62Z"/><rect class="cls-1" x="22" width="15.78" height="57.51" rx="4.06" ry="4.06" transform="translate(59.77 57.51) rotate(180)"/><rect class="cls-1" x="41.46" width="15.78" height="57.51" rx="4.06" ry="4.06" transform="translate(98.71 57.51) rotate(180)"/><rect class="cls-2" x="10.27" width="8.04" height="57.51" rx="1.65" ry="1.65" transform="translate(28.58 57.51) rotate(180)"/><path class="cls-2" d="M150.47,24.14h-8.27c-2.55,0-4.62,2.07-4.62,4.62s2.07,4.62,4.62,4.62h8.27c2.55,0,4.62-2.07,4.62-4.62s-2.07-4.62-4.62-4.62Z"/><rect class="cls-1" x="117.31" width="15.78" height="57.51" rx="4.06" ry="4.06"/><rect class="cls-1" x="97.85" width="15.78" height="57.51" rx="4.06" ry="4.06"/><rect class="cls-2" x="136.78" width="8.04" height="57.51" rx="1.65" ry="1.65"/></g></svg>